<svg width="1440" height="1300" viewBox="0 0 1440 1300" fill="none" xmlns="http://www.w3.org/2000/svg">
<g filter="url(#filter0_f_7514_9733)">
<ellipse cx="867.624" cy="546.104" rx="592.5" ry="327" transform="rotate(-6.48121 867.624 546.104)" fill="#1C144A"/>
</g>
<g filter="url(#filter1_f_7514_9733)">
<path d="M1311.64 452.747C1372.76 381.85 1381.48 324.05 1416.96 237.427C1485.46 70.2148 1458.34 -46.6036 1536.27 -209.628C1695.3 -542.269 1806.82 564.317 1478.84 732.736C1272.65 838.609 701.904 813.319 888.119 675.319C962.487 620.206 1027.29 633.087 1109.38 590.326C1194.1 546.195 1249.26 525.098 1311.64 452.747Z" fill="url(#paint0_linear_7514_9733)"/>
</g>
<g filter="url(#filter2_f_7514_9733)">
<path d="M-32.4226 277.737C-170.39 315.45 -199.683 451.606 -262.41 654.602C-389.485 1065.83 709.545 707.442 504.927 312.948C375.911 64.2122 143.805 229.565 -32.4226 277.737Z" fill="#3F2BB8" fill-opacity="0.65"/>
</g>
<g filter="url(#filter3_f_7514_9733)">
<path d="M222.065 489.271C104.156 497.028 27.2014 540.551 -47.6502 641.814C-199.286 846.953 686.66 912.119 563.277 686.751C485.481 544.652 372.672 479.362 222.065 489.271Z" fill="#0B0625"/>
</g>
<g filter="url(#filter4_b_7514_9733)">
<rect width="1440" height="1300" fill="black" fill-opacity="0.04"/>
</g>
<defs>
<filter id="filter0_f_7514_9733" x="-22.2652" y="-85.6843" width="1779.78" height="1263.58" filterUnits="userSpaceOnUse" color-interpolation-filters="sRGB">
<feFlood flood-opacity="0" result="BackgroundImageFix"/>
<feBlend mode="normal" in="SourceGraphic" in2="BackgroundImageFix" result="shape"/>
<feGaussianBlur stdDeviation="150" result="effect1_foregroundBlur_7514_9733"/>
</filter>
<filter id="filter1_f_7514_9733" x="601.324" y="-521.614" width="1339.41" height="1569.71" filterUnits="userSpaceOnUse" color-interpolation-filters="sRGB">
<feFlood flood-opacity="0" result="BackgroundImageFix"/>
<feBlend mode="normal" in="SourceGraphic" in2="BackgroundImageFix" result="shape"/>
<feGaussianBlur stdDeviation="125" result="effect1_foregroundBlur_7514_9733"/>
</filter>
<filter id="filter2_f_7514_9733" x="-572.672" y="-120.796" width="1403.07" height="1257.84" filterUnits="userSpaceOnUse" color-interpolation-filters="sRGB">
<feFlood flood-opacity="0" result="BackgroundImageFix"/>
<feBlend mode="normal" in="SourceGraphic" in2="BackgroundImageFix" result="shape"/>
<feGaussianBlur stdDeviation="150" result="effect1_foregroundBlur_7514_9733"/>
</filter>
<filter id="filter3_f_7514_9733" x="-265.171" y="288.292" width="1040.28" height="740.033" filterUnits="userSpaceOnUse" color-interpolation-filters="sRGB">
<feFlood flood-opacity="0" result="BackgroundImageFix"/>
<feBlend mode="normal" in="SourceGraphic" in2="BackgroundImageFix" result="shape"/>
<feGaussianBlur stdDeviation="100" result="effect1_foregroundBlur_7514_9733"/>
</filter>
<filter id="filter4_b_7514_9733" x="-170" y="-170" width="1780" height="1640" filterUnits="userSpaceOnUse" color-interpolation-filters="sRGB">
<feFlood flood-opacity="0" result="BackgroundImageFix"/>
<feGaussianBlur in="BackgroundImageFix" stdDeviation="85"/>
<feComposite in2="SourceAlpha" operator="in" result="effect1_backgroundBlur_7514_9733"/>
<feBlend mode="normal" in="SourceGraphic" in2="effect1_backgroundBlur_7514_9733" result="shape"/>
</filter>
<linearGradient id="paint0_linear_7514_9733" x1="1452.8" y1="101.255" x2="1201.49" y2="650.519" gradientUnits="userSpaceOnUse">
<stop stop-color="#8CFBD8"/>
<stop offset="1" stop-color="#342397"/>
</linearGradient>
</defs>
</svg>
